<?xml version="1.0" encoding="utf-8"?>
<!-- Generator: Adobe Illustrator 25.2.3, SVG Export Plug-In . SVG Version: 6.00 Build 0)  -->
<svg version="1.1" id="Layer_1" xmlns="http://www.w3.org/2000/svg" xmlns:xlink="http://www.w3.org/1999/xlink" x="0px" y="0px"
	 viewBox="0 0 1351 234.4" style="enable-background:new 0 0 1351 234.4;" xml:space="preserve">
<style type="text/css">
	.st0{fill:#FC663D;}
	.st1{fill:#FFFFFF;}
	.st2{fill:#F7931E;}
</style>
<g>
	<path class="st0" d="M170.4,52.6h-38.1L99.4,128L66.7,52.6H28.6l-21,138.6h38.7L57,111.4l36.8,80H105l36.8-80.1l10.8,79.8h38.5
		L170.4,52.6z"/>
	<g>
		<g>
			<path class="st0" d="M470.6,138.1c-3.9,15.4-16,25.4-31.4,25.4c-19.6,0-34-15.6-34-37c0-21.5,14.4-37.2,34-37.2
				c14.6,0,26.6,9.2,31.3,23.5h38.7c-5.6-35.2-33.8-59.1-70.1-59.1c-42.2,0-73.7,31.2-73.7,72.9c0,41.5,31.5,72.7,73.7,72.7v0
				c36.9,0,65.2-24.7,70.5-61.2L470.6,138.1L470.6,138.1z"/>
			<ellipse class="st0" cx="581.8" cy="142.3" rx="60" ry="57"/>
			<path class="st0" d="M786.7,85.7c-13.3,0-25.2,6.1-32.8,15.8c-6.7-9.9-17.6-15.8-30.7-15.8c-12.3,0-23.5,5.7-31.3,14.7l-5.2-11.5
				h-25.9v106.9h36.8v-58.6c0-13.3,5.5-20.5,15.5-20.5c7.7,0,11.8,5.7,11.8,16.6v62.5h35.9v-58.6c0-13.5,5.2-20.5,15.3-20.5
				c7.8,0,11.9,5.4,11.9,16.6v62.5h36.8v-67.1C824.8,103.5,809.6,85.7,786.7,85.7z"/>
			<path class="st0" d="M911.2,85.3c-12.7,0-24,4.4-32.8,12l-4.6-8.5h-25.1v145.6h36.4v-42.1c7.6,4.6,16.4,7.1,26.1,7.1
				c32.7,0,56.1-23.8,56.1-57.1C967.3,109,943.9,85.3,911.2,85.3z M906.3,166.8c-13.8,0-23.9-10.4-23.9-24.5
				c0-14,10.2-24.5,23.9-24.5c13.8,0,23.9,10.4,23.9,24.5C930.2,156.3,920,166.8,906.3,166.8z"/>
			<path class="st0" d="M986.4,44.2v31.3h36.3V44.2H986.4z M986.2,88.8v107h36.8v-107H986.2z"/>
			<path class="st0" d="M1048.2,50.2v145.6h36.8V50.2H1048.2z"/>
			<path class="st0" d="M1110.4,44.2v31.3h36.3V44.2H1110.4z M1110.1,88.8v107h36.8v-107H1110.1z"/>
			<path class="st0" d="M1221.3,128.7c-10.2-1.8-18.3-3.2-18.3-9.3c0-5,4-7.9,9.9-7.9c6.7,0,11.3,3.2,11.3,10h34.5
				c-0.4-21.7-18.1-36.2-45.3-36.2c-27.4,0-45.7,13.8-45.7,35.3c0,25.9,22,30.9,38.6,33.6c10.3,1.7,18.4,3.5,18.4,9.6
				c0,5.5-5.1,8.3-10.5,8.3c-7,0-12.4-3.6-12.4-11.4h-35.5c0.3,23.2,18.1,38.6,47.2,38.6h0c28.4,0,47.3-14.6,47.3-37
				C1260.7,135.2,1238.2,131.7,1221.3,128.7z"/>
			<path class="st0" d="M1336.9,163.5c-7.8,0-12.4-4.6-12.4-12.3v-34h25.9V88.8h-26.9V57.6h-7.6l-47.9,51v8.6h19.6v40.3
				c0,23.8,14.4,38.2,38,38.2h25.3v-32.3L1336.9,163.5L1336.9,163.5z"/>
		</g>
		<g>
			<g>
				<circle class="st1" cx="581.8" cy="111.5" r="11.1"/>
				<circle class="st1" cx="549.4" cy="135" r="11.1"/>
				<circle class="st1" cx="561.8" cy="173.1" r="11.1"/>
				<circle class="st1" cx="601.8" cy="173.1" r="11.1"/>
				<circle class="st1" cx="614.2" cy="135" r="11.1"/>
			</g>
			<polygon class="st1" points="581.8,127.6 586.6,137.3 597.3,138.8 589.6,146.4 591.4,157 581.8,152 572.2,157 574.1,146.4 
				566.3,138.8 577,137.3 			"/>
		</g>
	</g>
	<g>
		<path class="st2" d="M555.2,65.9c-16.9-19.6-38.5-34.6-62.2-43.3c-5-1.8-10.2-3.4-15.3-4.7c-19.2-4.8-39.1-5.6-58.2-2.5
			c-10.8,1.7-21.4,4.5-31.4,8.6c-1.2,0.5-2.5,1-3.7,1.5c-10.8,4.8-21,10.9-30.2,18.1c-0.2,0.2-0.4,0.3-0.7,0.5
			c-18.5,14.5-33,33.5-42.1,54.4c0,0.1-0.1,0.2-0.1,0.2c-0.2,0.3-0.3,0.6-0.5,1c-0.3,0.6-0.6,1.2-0.9,1.8c-1.4,2.8-2.7,5.5-3.9,8.3
			c-0.6,1.4-1.2,2.8-1.7,4.2l-31.9,73.3c-15.3,34.7-29.3,47.2-58.5,47.2H0l5.1-33.5h206c14.9,0,19.4-3.9,24.7-18L189.1,79h41.3
			l25.1,62.4c0,0,12-26.9,28.3-54.8c3.3-5.6,6.7-11.2,10.2-16.7c0,0,0-0.1,0.1-0.1c12.5-17.7,28.4-32.8,46.3-44.3
			C352.1,18,364.7,12,377.8,7.7c11.3-3.6,22.9-6,34.6-7c1.8-0.2,3.7-0.3,5.5-0.4C445-1.4,472.1,4.1,496,15.6
			C519.9,27.1,540.3,44.8,555.2,65.9z"/>
	</g>
</g>
</svg>
